<?xml version="1.0"?>
<svg xmlns="http://www.w3.org/2000/svg" height="512px" viewBox="0 0 512 512" width="512px" class=""><g><g id="Outline"><path d="m416 16h-280a56.064 56.064 0 0 0 -56 56v336a55.949 55.949 0 0 0 56 56h8v24a8 8 0 0 0 13.657 5.657l26.343-26.344 26.343 26.344a8 8 0 0 0 13.657-5.657v-88h192v16h-176v16h176v16h-176v16h176a16.019 16.019 0 0 0 16-16v-416a16.019 16.019 0 0 0 -16-16zm-320 56a40.045 40.045 0 0 1 40-40h280v320h-280a55.82 55.82 0 0 0 -40 16.862zm.805 328h47.195v16h-47.2a40.179 40.179 0 0 1 0-16zm39.195 48a40.092 40.092 0 0 1 -32-16h40v16zm72 20.687-18.343-18.344a8 8 0 0 0 -11.314 0l-18.343 18.344v-68.687h48zm-103.978-84.687a39.962 39.962 0 0 1 31.978-16h280v16z" data-original="#000000" class="active-path" data-old_color="#000000" fill="#FFFFFF"/><path d="m128 48h16v288h-16z" data-original="#000000" class="active-path" data-old_color="#000000" fill="#FFFFFF"/><path d="m192 160h176a8 8 0 0 0 8-8v-48a8 8 0 0 0 -8-8h-176a8 8 0 0 0 -8 8v48a8 8 0 0 0 8 8zm8-48h160v32h-160z" data-original="#000000" class="active-path" data-old_color="#000000" fill="#FFFFFF"/></g></g> </svg>
